# xmcd
#
# Track frame offsets: 
#        150
#        18157
#        36261
#        54741
#        75620
#        94503
#        111080
#        140087
#        157037
#        191477
#        209496
#        227813
#        252498
#        271498
#        291598
#        316958
#        333110
#
# Disc length: 4778 seconds
#
# Revision: 0
# Processed by: cddbd v1.5.2PL0 Copyright (c) Steve Scherf et al.
# Submitted via: ExactAudioCopy v1.3
#
DISCID=fa12a811
DTITLE=Various Artist - Akella Presents - vol. 131 - Electric Blues  
DTITLE=CD1
DYEAR=2018
DGENRE=Blues
TTITLE0=Scott Sharrard and the Brickyard Band - Debt
TTITLE1=The Black Sorrows - Lay By My Side
TTITLE2=Tim Barnes and The Five Grand Band - Back Talkin' Baby
TTITLE3=Eric Street Band - I'm Coming Home
TTITLE4=Stephen Andrew Bahakel - Oh the Sun
TTITLE5=TBelly - I'll Get You Home
TTITLE6=Lubos Andrst Blues Band and Ramblin Rex - Why I Sing The Blues
TTITLE7=Freddie Pate - Hello Josephine
TTITLE8=The Silver Dimes - Double Trouble
TTITLE9=True Blue - Love in Vain
TTITLE10=Albert Bashor - So Blue
TTITLE11=Jay Stollman - A Change Is Gonna Come
TTITLE12=Randy Morrison Band - There Goes The Neighborhood
TTITLE13=James Monroe - Strike Right Now
TTITLE14=Big Will and The Bluesmen - Leave It All Behind
TTITLE15=Billy Thompson - Johnny Is A Cloud
TTITLE16=Blues Eaters - Taken Lives
EXTD=
EXTT0=
EXTT1=
EXTT2=
EXTT3=
EXTT4=
EXTT5=
EXTT6=
EXTT7=
EXTT8=
EXTT9=
EXTT10=
EXTT11=
EXTT12=
EXTT13=
EXTT14=
EXTT15=
EXTT16=
PLAYORDER=
